<?xml version="1.0" standalone="no"?>
<!DOCTYPE svg PUBLIC "-//W3C//DTD SVG 1.0//EN" "http://www.w3.org/TR/2001/REC-SVG-20010904/DTD/svg10.dtd">
<svg xmlns="http://www.w3.org/2000/svg" xmlns:xlink="http://www.w3.org/1999/xlink" id="body_1" width="30px" height="px">

<defs>
    <clipPath  id="1">

    <path id=""  clip-rule="evenodd" transform="matrix(1 0 0 1 0 0)"  d="M0 24L0 0L0 0L24 0L24 0L24 24L24 24L0 24z" />    </clipPath>
</defs>

<g transform="matrix(1.3333 0 0 1.3333 0 0)">
	<g clip-path="url(#1)" >
    <path id=""  transform="matrix(1 0 0 -1 0 24)"  d="M24 1.5C 24 0.6720009 23.328 0 22.5 0L22.5 0L22.5 0L22.5 0L1.5 0L1.5 0L1.5 0C 0.67200005 0 0 0.6720009 0 1.5L0 1.5L0 1.5L0 1.5L0 22.5L0 22.5L0 22.5C 0 23.328 0.67200005 24 1.5 24L1.5 24L1.5 24L1.5 24L22.5 24L22.5 24L22.5 24C 23.328 24 24 23.328 24 22.5L24 22.5L24 22.5L24 22.5L24 1.5z" stroke="#FFFFFF" stroke-width="1" fill="#007BB5" fill-rule="nonzero" />
    <path id=""  transform="matrix(1 0 0 -1 0 24)"  d="M5.25 15.75L5.25 15.75L5.25 15.75L8.25 15.75L8.25 15.75L8.25 5.25L8.25 5.25L5.25 5.25z" stroke="#FFFFFF" stroke-width="0.75" fill="#FFFFFF" fill-rule="nonzero" />
    <path id=""  transform="matrix(1 0 0 -1 0 24)"  d="M15.37425 15.75C 13.281 15.75 12.9210005 14.9865 12.75 14.25L12.75 14.25L12.75 14.25L12.75 14.25L12.75 15.75L12.75 15.75L12.75 15.75L12.75 15.75L9.75 15.75L9.75 15.75L9.75 15.75L9.75 15.75L9.75 5.25L9.75 5.25L9.75 5.25L9.75 5.25L12.75 5.25L12.75 5.25L12.75 5.25L12.75 5.25L12.75 11.25L12.75 11.25L12.75 11.25C 12.75 12.22275 13.27725 12.75 14.25 12.75L14.25 12.75L14.25 12.75C 15.1995 12.75 15.75 12.234 15.75 11.25L15.75 11.25L15.75 11.25L15.75 11.25L15.75 5.25L15.75 5.25L15.75 5.25L15.75 5.25L18.75 5.25L18.75 5.25L18.75 5.25L18.75 5.25L18.75 10.5L18.75 10.5L18.75 10.5C 18.75 13.5 18.35925 15.75 15.37425 15.75z" stroke="#FFFFFF" stroke-width="1" fill="#FFFFFF" fill-rule="nonzero" />
    <path id=""  transform="matrix(1 0 0 -1 0 24)"  d="M8.25 18C 8.25 18.414213 8.103554 18.767767 7.8106604 19.060661L7.8106604 19.060661L7.8106604 19.060661C 7.517767 19.353554 7.1642137 19.5 6.75 19.5L6.75 19.5L6.75 19.5C 6.335787 19.5 5.9822335 19.353554 5.6893396 19.060661L5.6893396 19.060661L5.6893396 19.060661C 5.3964467 18.767767 5.25 18.414213 5.25 18L5.25 18L5.25 18C 5.25 17.585787 5.3964467 17.232233 5.6893396 16.939339L5.6893396 16.939339L5.6893396 16.939339C 5.9822335 16.646446 6.335787 16.5 6.75 16.5L6.75 16.5L6.75 16.5C 7.1642137 16.5 7.517767 16.646446 7.8106604 16.939339L7.8106604 16.939339L7.8106604 16.939339C 8.103554 17.232233 8.25 17.585787 8.25 18" stroke="#FFFFFF" stroke-width="1" fill="#FFFFFF" fill-rule="evenodd" />
	</g>
</g>
</svg>
